<?xml version="1.0" encoding="UTF-8"?>
<!DOCTYPE svg PUBLIC "-//W3C//DTD SVG 1.1//EN" "http://www.w3.org/Graphics/SVG/1.1/DTD/svg11.dtd">
<svg xmlns="http://www.w3.org/2000/svg" version="1.1" width="574px" height="276px" style="shape-rendering:geometricPrecision; text-rendering:geometricPrecision; image-rendering:optimizeQuality; fill-rule:evenodd; clip-rule:evenodd" xmlns:xlink="http://www.w3.org/1999/xlink">
<g><path style="opacity:1" fill="#fefffe" d="M -0.5,-0.5 C 190.833,-0.5 382.167,-0.5 573.5,-0.5C 573.5,91.5 573.5,183.5 573.5,275.5C 382.167,275.5 190.833,275.5 -0.5,275.5C -0.5,183.5 -0.5,91.5 -0.5,-0.5 Z"/></g>
<g><path style="opacity:1" fill="#000000" d="M 5.5,12.5 C 189.167,12.5 372.833,12.5 556.5,12.5C 556.5,96.8333 556.5,181.167 556.5,265.5C 372.833,265.5 189.167,265.5 5.5,265.5C 5.5,181.167 5.5,96.8333 5.5,12.5 Z"/></g>
<g><path style="opacity:1" fill="#fefffe" d="M 7.5,14.5 C 189.833,14.5 372.167,14.5 554.5,14.5C 554.5,97.5 554.5,180.5 554.5,263.5C 372.167,263.5 189.833,263.5 7.5,263.5C 7.5,180.5 7.5,97.5 7.5,14.5 Z"/></g>
<g><path style="opacity:1" fill="#000000" d="M 11.5,18.5 C 50.1667,18.5 88.8333,18.5 127.5,18.5C 127.5,33.5 127.5,48.5 127.5,63.5C 88.8333,63.5 50.1667,63.5 11.5,63.5C 11.5,48.5 11.5,33.5 11.5,18.5 Z"/></g>
<g><path style="opacity:1" fill="#000000" d="M 131.5,18.5 C 158.167,18.5 184.833,18.5 211.5,18.5C 211.5,33.5 211.5,48.5 211.5,63.5C 184.833,63.5 158.167,63.5 131.5,63.5C 131.5,48.5 131.5,33.5 131.5,18.5 Z"/></g>
<g><path style="opacity:1" fill="#000000" d="M 215.5,18.5 C 327.167,18.5 438.833,18.5 550.5,18.5C 550.5,33.5 550.5,48.5 550.5,63.5C 438.833,63.5 327.167,63.5 215.5,63.5C 215.5,48.5 215.5,33.5 215.5,18.5 Z"/></g>
<g><path style="opacity:1" fill="#fcf953" d="M 13.5,20.5 C 50.8333,20.5 88.1667,20.5 125.5,20.5C 125.5,34.1667 125.5,47.8333 125.5,61.5C 88.1667,61.5 50.8333,61.5 13.5,61.5C 13.5,47.8333 13.5,34.1667 13.5,20.5 Z"/></g>
<g><path style="opacity:1" fill="#faf852" d="M 133.5,20.5 C 158.833,20.5 184.167,20.5 209.5,20.5C 209.5,34.1667 209.5,47.8333 209.5,61.5C 184.167,61.5 158.833,61.5 133.5,61.5C 133.5,47.8333 133.5,34.1667 133.5,20.5 Z"/></g>
<g><path style="opacity:1" fill="#71fafb" d="M 217.5,20.5 C 327.833,20.5 438.167,20.5 548.5,20.5C 548.5,34.1667 548.5,47.8333 548.5,61.5C 438.167,61.5 327.833,61.5 217.5,61.5C 217.5,47.8333 217.5,34.1667 217.5,20.5 Z"/></g>
<g><path style="opacity:1" fill="#0d0c04" d="M 46.5,41.5 C 46.56,42.0431 46.8933,42.3764 47.5,42.5C 48.8056,39.0202 48.8056,35.6868 47.5,32.5C 47.0472,31.5416 46.3805,30.7083 45.5,30C 47.5,29.3333 49.5,29.3333 51.5,30C 51,30.5 50.5,31 50,31.5C 49.6667,38.5 49.3333,45.5 49,52.5C 43.9557,47.1244 39.289,41.4578 35,35.5C 34.3333,40.1667 34.3333,44.8333 35,49.5C 38.0555,51.0385 37.5555,51.7052 33.5,51.5C 29.4445,51.7052 28.9445,51.0385 32,49.5C 32.6667,43.8333 32.6667,38.1667 32,32.5C 31.3076,31.9747 30.8076,31.3081 30.5,30.5C 32.7649,29.3526 35.0982,29.1859 37.5,30C 40.7146,33.7088 43.7146,37.5421 46.5,41.5 Z"/></g>
<g><path style="opacity:1" fill="#100f05" d="M 155.5,29.5 C 159.644,35.1217 162.811,41.455 165,48.5C 165.833,49.3333 166.667,50.1667 167.5,51C 163.833,51.6667 160.167,51.6667 156.5,51C 159.266,50.3088 159.933,48.8088 158.5,46.5C 155.833,45.1667 153.167,45.1667 150.5,46.5C 149.067,48.8088 149.734,50.3088 152.5,51C 150.167,51.6667 147.833,51.6667 145.5,51C 149.498,44.1879 152.831,37.0212 155.5,29.5 Z"/></g>
<g><path style="opacity:1" fill="#0f1717" d="M 355.5,36.5 C 356.833,39.1667 356.833,41.8333 355.5,44.5C 355.306,42.0882 353.973,41.0882 351.5,41.5C 351.5,44.1667 351.5,46.8333 351.5,49.5C 356.439,50.6481 359.939,48.9814 362,44.5C 362.497,46.8098 362.663,49.1432 362.5,51.5C 355.825,51.6663 349.158,51.4996 342.5,51C 343.416,50.6258 344.25,50.1258 345,49.5C 345.667,43.5 345.667,37.5 345,31.5C 344.25,30.8742 343.416,30.3742 342.5,30C 348.825,29.5005 355.158,29.3338 361.5,29.5C 362.176,36.6831 361.176,37.5164 358.5,32C 356.19,31.5034 353.857,31.3367 351.5,31.5C 351.187,34.2469 351.52,36.9135 352.5,39.5C 353.855,38.8118 354.855,37.8118 355.5,36.5 Z"/></g>
<g><path style="opacity:1" fill="#111b1b" d="M 408.5,29.5 C 412.138,28.7366 413.638,30.0699 413,33.5C 409.331,35.0093 407.831,33.6759 408.5,29.5 Z"/></g>
<g><path style="opacity:1" fill="#000101" d="M 415.5,30.5 C 417.265,29.5386 419.265,29.2053 421.5,29.5C 421.334,36.175 421.5,42.8417 422,49.5C 422.5,50 423,50.5 423.5,51C 420.833,51.6667 418.167,51.6667 415.5,51C 416,50.5 416.5,50 417,49.5C 417.667,43.5 417.667,37.5 417,31.5C 416.617,30.944 416.117,30.6107 415.5,30.5 Z"/></g>
<g><path style="opacity:1" fill="#59581d" d="M 47.5,32.5 C 48.8056,35.6868 48.8056,39.0202 47.5,42.5C 46.8933,42.3764 46.56,42.0431 46.5,41.5C 47.4767,38.7131 47.81,35.7131 47.5,32.5 Z"/></g>
<g><path style="opacity:1" fill="#285858" d="M 355.5,44.5 C 356.833,41.8333 356.833,39.1667 355.5,36.5C 355.369,35.6236 355.702,34.9569 356.5,34.5C 357.833,38.1667 357.833,41.8333 356.5,45.5C 355.893,45.3764 355.56,45.0431 355.5,44.5 Z"/></g>
<g><path style="opacity:1" fill="#151408" d="M 68.5,50.5 C 63.8804,50.5896 59.2137,50.7563 54.5,51C 53.4464,49.6124 53.2797,48.1124 54,46.5C 56.6613,44.5841 59.1613,42.5841 61.5,40.5C 61.141,37.7183 59.8077,37.0517 57.5,38.5C 58.7307,42.0995 57.564,43.0995 54,41.5C 53.2888,39.6332 53.7888,38.1332 55.5,37C 59.3169,35.9766 62.8169,36.4766 66,38.5C 66.0072,42.8099 66.8406,46.8099 68.5,50.5 Z"/></g>
<g><path style="opacity:1" fill="#121106" d="M 68.5,50.5 C 69.1174,50.3893 69.6174,50.056 70,49.5C 70.1667,47.5 70.3333,45.5 70.5,43.5C 70.4101,41.0363 69.7435,38.8697 68.5,37C 72.3059,36.9262 75.9725,36.7596 79.5,36.5C 81.374,36.3898 82.874,37.0564 84,38.5C 87,35.8333 90,35.8333 93,38.5C 93.1998,42.7533 93.6998,46.92 94.5,51C 91.8333,51.6667 89.1667,51.6667 86.5,51C 88.0454,49.1781 88.712,47.0114 88.5,44.5C 88.3333,42.8333 88.1667,41.1667 88,39.5C 87,38.1667 86,38.1667 85,39.5C 84.2073,43.423 84.374,47.2564 85.5,51C 83.1667,51.6667 80.8333,51.6667 78.5,51C 79.626,47.2564 79.7927,43.423 79,39.5C 78,38.1667 77,38.1667 76,39.5C 75.2073,43.423 75.374,47.2564 76.5,51C 73.633,51.8007 70.9664,51.6341 68.5,50.5 Z"/></g>
<g><path style="opacity:1" fill="#0c0b04" d="M 99.5,36.5 C 105.188,35.531 108.188,37.8643 108.5,43.5C 105.833,43.5 103.167,43.5 100.5,43.5C 101.211,48.7652 103.711,50.0985 108,47.5C 108.167,47.8333 108.333,48.1667 108.5,48.5C 105.151,52.0011 101.484,52.3344 97.5,49.5C 95.7018,44.6261 96.3685,40.2927 99.5,36.5 Z"/></g>
<g><path style="opacity:1" fill="#121106" d="M 171.5,36.5 C 175.555,36.1758 179.555,36.5091 183.5,37.5C 182.118,40.3518 180.785,43.1851 179.5,46C 177.527,46.4955 175.527,46.6621 173.5,46.5C 173.5,47.5 173.5,48.5 173.5,49.5C 176.187,49.3359 178.854,49.5026 181.5,50C 184.172,52.6788 183.838,55.0121 180.5,57C 167.864,59.9945 165.197,56.3279 172.5,46C 168.86,43.3016 168.527,40.135 171.5,36.5 Z"/></g>
<g><path style="opacity:1" fill="#0f0e05" d="M 188.5,36.5 C 194.188,35.531 197.188,37.8643 197.5,43.5C 194.833,43.5 192.167,43.5 189.5,43.5C 189.472,45.5824 190.139,47.4157 191.5,49C 193.655,49.116 195.655,48.7827 197.5,48C 194.163,52.0275 190.33,52.5275 186,49.5C 183.463,44.3946 184.296,40.0613 188.5,36.5 Z"/></g>
<g><path style="opacity:1" fill="#080e0e" d="M 364.5,37.5 C 367.954,36.985 371.454,36.6517 375,36.5C 376.658,36.6752 377.991,37.3418 379,38.5C 382,35.8333 385,35.8333 388,38.5C 388.2,42.7533 388.7,46.92 389.5,51C 387.167,51.6667 384.833,51.6667 382.5,51C 383.464,46.9341 383.797,42.7675 383.5,38.5C 382.178,38.33 381.011,38.6634 380,39.5C 379.24,43.2255 379.407,46.8922 380.5,50.5C 378.235,51.6474 375.902,51.8141 373.5,51C 374.464,46.9341 374.797,42.7675 374.5,38.5C 373.178,38.33 372.011,38.6634 371,39.5C 370.24,43.2255 370.407,46.8922 371.5,50.5C 369.235,51.6474 366.902,51.8141 364.5,51C 365.823,46.4001 365.823,41.9001 364.5,37.5 Z"/></g>
<g><path style="opacity:1" fill="#0c1414" d="M 406.5,50.5 C 401.88,50.5896 397.214,50.7563 392.5,51C 391.446,49.6124 391.28,48.1124 392,46.5C 394.661,44.5841 397.161,42.5841 399.5,40.5C 399.141,37.7183 397.808,37.0517 395.5,38.5C 396.731,42.0995 395.564,43.0995 392,41.5C 391.289,39.6332 391.789,38.1332 393.5,37C 397.317,35.9766 400.817,36.4766 404,38.5C 404.007,42.8099 404.841,46.8099 406.5,50.5 Z"/></g>
<g><path style="opacity:1" fill="#070e0e" d="M 406.5,50.5 C 407.117,50.3893 407.617,50.056 408,49.5C 408.667,45.8333 408.667,42.1667 408,38.5C 407.5,38 407,37.5 406.5,37C 408.81,36.5034 411.143,36.3367 413.5,36.5C 413.197,41.43 413.531,46.2633 414.5,51C 411.633,51.8007 408.966,51.6341 406.5,50.5 Z"/></g>
<g><path style="opacity:1" fill="#d8d647" d="M 101.5,37.5 C 104.084,38.0483 105.084,39.715 104.5,42.5C 103.167,42.5 101.833,42.5 100.5,42.5C 100.366,40.7085 100.699,39.0418 101.5,37.5 Z"/></g>
<g><path style="opacity:1" fill="#e4e24b" d="M 174.5,37.5 C 176.89,37.6848 177.89,39.0182 177.5,41.5C 176.167,46.8333 174.833,46.8333 173.5,41.5C 173.623,40.0755 173.957,38.7421 174.5,37.5 Z"/></g>
<g><path style="opacity:1" fill="#dbd948" d="M 190.5,37.5 C 193.084,38.0483 194.084,39.715 193.5,42.5C 192.167,42.5 190.833,42.5 189.5,42.5C 189.366,40.7085 189.699,39.0418 190.5,37.5 Z"/></g>
<g><path style="opacity:1" fill="#dedc49" d="M 153.5,37.5 C 155.27,38.8559 156.603,40.6892 157.5,43C 155.5,43.6667 153.5,43.6667 151.5,43C 152.464,41.2745 153.131,39.4412 153.5,37.5 Z"/></g>
<g><path style="opacity:1" fill="#e9e74d" d="M 59.5,44.5 C 62.0628,45.9979 62.0628,47.6646 59.5,49.5C 58.3336,47.8327 58.3336,46.166 59.5,44.5 Z"/></g>
<g><path style="opacity:1" fill="#68e5e7" d="M 397.5,44.5 C 400.063,45.9979 400.063,47.6646 397.5,49.5C 396.334,47.8327 396.334,46.166 397.5,44.5 Z"/></g>
<g><path style="opacity:1" fill="#edea4e" d="M 171.5,53.5 C 174.572,53.1826 177.572,53.5159 180.5,54.5C 179.473,56.024 177.973,56.6906 176,56.5C 173.374,56.9497 171.874,55.9497 171.5,53.5 Z"/></g>
<g><path style="opacity:1" fill="#000000" d="M 11.5,67.5 C 50.1667,67.5 88.8333,67.5 127.5,67.5C 127.5,82.5 127.5,97.5 127.5,112.5C 88.8333,112.5 50.1667,112.5 11.5,112.5C 11.5,97.5 11.5,82.5 11.5,67.5 Z"/></g>
<g><path style="opacity:1" fill="#000000" d="M 131.5,67.5 C 158.167,67.5 184.833,67.5 211.5,67.5C 211.5,82.5 211.5,97.5 211.5,112.5C 184.833,112.5 158.167,112.5 131.5,112.5C 131.5,97.5 131.5,82.5 131.5,67.5 Z"/></g>
<g><path style="opacity:1" fill="#000000" d="M 215.5,67.5 C 327.167,67.5 438.833,67.5 550.5,67.5C 550.5,82.5 550.5,97.5 550.5,112.5C 438.833,112.5 327.167,112.5 215.5,112.5C 215.5,97.5 215.5,82.5 215.5,67.5 Z"/></g>
<g><path style="opacity:1" fill="#fcfa53" d="M 13.5,69.5 C 50.8333,69.5 88.1667,69.5 125.5,69.5C 125.5,83.1667 125.5,96.8333 125.5,110.5C 88.1667,110.5 50.8333,110.5 13.5,110.5C 13.5,96.8333 13.5,83.1667 13.5,69.5 Z"/></g>
<g><path style="opacity:1" fill="#fdfb53" d="M 133.5,69.5 C 158.833,69.5 184.167,69.5 209.5,69.5C 209.5,83.1667 209.5,96.8333 209.5,110.5C 184.167,110.5 158.833,110.5 133.5,110.5C 133.5,96.8333 133.5,83.1667 133.5,69.5 Z"/></g>
<g><path style="opacity:1" fill="#70f7f9" d="M 217.5,69.5 C 327.833,69.5 438.167,69.5 548.5,69.5C 548.5,83.1667 548.5,96.8333 548.5,110.5C 438.167,110.5 327.833,110.5 217.5,110.5C 217.5,96.8333 217.5,83.1667 217.5,69.5 Z"/></g>
<g><path style="opacity:1" fill="#7b7a29" d="M 25.5,80.5 C 23.5,79.1667 21.5,79.1667 19.5,80.5C 18.9569,80.44 18.6236,80.1067 18.5,79.5C 21.5,78.1667 24.5,78.1667 27.5,79.5C 27.0431,80.2975 26.3764,80.6309 25.5,80.5 Z"/></g>
<g><path style="opacity:1" fill="#646320" d="M 48.5,78.5 C 49.1667,81.1667 49.8333,83.8333 50.5,86.5C 50.5,86.8333 50.5,87.1667 50.5,87.5C 48.6122,85.0122 47.9455,82.0122 48.5,78.5 Z"/></g>
<g><path style="opacity:1" fill="#0a1212" d="M 223.5,78.5 C 224.5,78.5 225.5,78.5 226.5,78.5C 226.5,79.5 226.5,80.5 226.5,81.5C 225.5,81.5 224.5,81.5 223.5,81.5C 223.5,80.5 223.5,79.5 223.5,78.5 Z"/></g>
<g><path style="opacity:1" fill="#020404" d="M 393.5,78.5 C 394.833,78.5 396.167,78.5 397.5,78.5C 396.892,85.948 397.559,93.1147 399.5,100C 397.167,100.667 394.833,100.667 392.5,100C 393.783,96.9364 394.45,93.6031 394.5,90C 394.45,86.3969 393.783,83.0636 392.5,80C 393.056,79.6174 393.389,79.1174 393.5,78.5 Z"/></g>
<g><path style="opacity:1" fill="#0c0b03" d="M 19.5,80.5 C 21.5,79.1667 23.5,79.1667 25.5,80.5C 24.6728,85.9851 24.1728,91.6518 24,97.5C 22.9718,99.5159 21.3052,100.516 19,100.5C 15.2831,100.087 14.7831,98.7541 17.5,96.5C 18.3333,97.5 19.1667,98.5 20,99.5C 20.3333,99.1667 20.6667,98.8333 21,98.5C 21.6667,92.8333 21.6667,87.1667 21,81.5C 20.6174,80.944 20.1174,80.6107 19.5,80.5 Z"/></g>
<g><path style="opacity:1" fill="#121106" d="M 48.5,78.5 C 47.9455,82.0122 48.6122,85.0122 50.5,87.5C 48.8285,91.911 49.1618,96.0777 51.5,100C 49.1667,100.667 46.8333,100.667 44.5,100C 45,99.5 45.5,99 46,98.5C 46.1667,95.5 46.3333,92.5 46.5,89.5C 46.4464,86.0606 45.7797,82.8939 44.5,80C 45.745,79.2086 47.0783,78.7086 48.5,78.5 Z"/></g>
<g><path style="opacity:1" fill="#1e1d0e" d="M 156.5,78.5 C 162.968,78.8045 166.302,82.3045 166.5,89C 166.204,92.3871 165.204,95.5537 163.5,98.5C 160.297,101.122 157.13,101.122 154,98.5C 151.626,94.1065 150.959,89.4398 152,84.5C 152.804,81.8541 154.304,79.8541 156.5,78.5 Z"/></g>
<g><path style="opacity:1" fill="#f3f150" d="M 156.5,80.5 C 158.722,80.178 160.556,80.8446 162,82.5C 162.667,86.8333 162.667,91.1667 162,95.5C 161.132,99.7896 159.132,100.456 156,97.5C 153.85,91.7157 154.017,86.0491 156.5,80.5 Z"/></g>
<g><path style="opacity:1" fill="#111c1c" d="M 288.5,78.5 C 294.624,77.7 299.458,79.7 303,84.5C 304.202,88.7929 303.035,92.2929 299.5,95C 295.5,94.3333 291.5,94.3333 287.5,95C 284.552,91.0725 285.218,87.7392 289.5,85C 292.663,84.9316 295.663,84.9316 298.5,85C 296.579,88.0184 296.246,91.1851 297.5,94.5C 302.285,90.6402 302.618,86.4735 298.5,82C 291.915,78.9578 286.748,80.4578 283,86.5C 281.075,92.4309 282.908,96.5976 288.5,99C 292.332,99.7622 295.998,99.2622 299.5,97.5C 299.833,97.6667 300.167,97.8333 300.5,98C 299.672,98.9147 298.672,99.5814 297.5,100C 289.85,102.304 284.017,100.138 280,93.5C 279.21,90.366 279.543,87.366 281,84.5C 283.114,81.8792 285.614,79.8792 288.5,78.5 Z"/></g>
<g><path style="opacity:1" fill="#161408" d="M 50.5,87.5 C 50.5,87.1667 50.5,86.8333 50.5,86.5C 52.9358,84.9829 55.1024,85.3162 57,87.5C 57.3333,91.1667 57.6667,94.8333 58,98.5C 58.5,99 59,99.5 59.5,100C 57.1667,100.667 54.8333,100.667 52.5,100C 53.733,98.3023 54.3996,96.3023 54.5,94C 54.3333,92.1667 54.1667,90.3333 54,88.5C 52.9887,87.6634 51.8221,87.33 50.5,87.5 Z"/></g>
<g><path style="opacity:1" fill="#0f1717" d="M 246.5,78.5 C 247.5,78.5 248.5,78.5 249.5,78.5C 249.335,81.5184 249.502,84.5184 250,87.5C 252.747,84.9659 255.413,84.9659 258,87.5C 257.937,91.9818 258.77,96.1485 260.5,100C 258.167,100.667 255.833,100.667 253.5,100C 254.733,98.3023 255.4,96.3023 255.5,94C 255.333,92.1667 255.167,90.3333 255,88.5C 253.062,87.1398 251.396,87.4732 250,89.5C 248.977,93.3169 249.477,96.8169 251.5,100C 249.5,100.667 247.5,100.667 245.5,100C 246.426,92.7095 246.759,85.5428 246.5,78.5 Z"/></g>
<g><path style="opacity:1" fill="#0b1212" d="M 263.5,85.5 C 265.864,86.5294 268.197,86.5294 270.5,85.5C 272.029,85.5288 273.196,86.1955 274,87.5C 273.937,91.9818 274.77,96.1485 276.5,100C 274.167,100.667 271.833,100.667 269.5,100C 270.733,98.3023 271.4,96.3023 271.5,94C 271.333,92.1667 271.167,90.3333 271,88.5C 269.667,87.1667 268.333,87.1667 267,88.5C 266.833,90.3333 266.667,92.1667 266.5,94C 266.6,96.3023 267.267,98.3023 268.5,100C 266.167,100.667 263.833,100.667 261.5,100C 263.045,98.1781 263.712,96.0114 263.5,93.5C 263.712,90.9886 263.045,88.8219 261.5,87C 262.416,86.7216 263.082,86.2216 263.5,85.5 Z"/></g>
<g><path style="opacity:1" fill="#0e1616" d="M 354.5,85.5 C 356.482,86.8165 358.482,86.8165 360.5,85.5C 362.055,85.722 363.389,86.3887 364.5,87.5C 367.451,85.0321 370.284,85.0321 373,87.5C 372.937,91.9818 373.77,96.1485 375.5,100C 373.167,100.667 370.833,100.667 368.5,100C 369.733,98.3023 370.4,96.3023 370.5,94C 370.333,92.1667 370.167,90.3333 370,88.5C 368.062,87.1398 366.396,87.4732 365,89.5C 363.977,93.3169 364.477,96.8169 366.5,100C 364.167,100.667 361.833,100.667 359.5,100C 360.733,98.3023 361.4,96.3023 361.5,94C 361.333,92.1667 361.167,90.3333 361,88.5C 359.667,87.1667 358.333,87.1667 357,88.5C 356.833,90.3333 356.667,92.1667 356.5,94C 356.6,96.3023 357.267,98.3023 358.5,100C 356.167,100.667 353.833,100.667 351.5,100C 353.834,96.1085 354.167,91.9418 352.5,87.5C 353.243,86.8182 353.909,86.1515 354.5,85.5 Z"/></g>
<g><path style="opacity:1" fill="#0a1112" d="M 378.5,85.5 C 379.75,85.5774 380.583,86.244 381,87.5C 384.374,84.5948 387.374,84.9281 390,88.5C 391.297,93.1169 390.13,96.9502 386.5,100C 384.559,100.743 382.726,100.576 381,99.5C 379.788,102.834 380.621,105.334 383.5,107C 380.833,107.667 378.167,107.667 375.5,107C 376.783,103.936 377.45,100.603 377.5,97C 377.481,93.5819 377.147,90.2485 376.5,87C 377.416,86.7216 378.082,86.2216 378.5,85.5 Z"/></g>
<g><path style="opacity:1" fill="#100e05" d="M 62.5,85.5 C 64.1238,85.3601 65.2904,86.0267 66,87.5C 68.3333,84.8333 70.6667,84.8333 73,87.5C 73.3333,91.1667 73.6667,94.8333 74,98.5C 74.5,99 75,99.5 75.5,100C 73.1667,100.667 70.8333,100.667 68.5,100C 69.733,98.3023 70.3996,96.3023 70.5,94C 70.3333,92.1667 70.1667,90.3333 70,88.5C 68.8869,87.2889 67.7202,87.2889 66.5,88.5C 66.1667,90.3333 65.8333,92.1667 65.5,94C 65.6004,96.3023 66.267,98.3023 67.5,100C 65.1667,100.667 62.8333,100.667 60.5,100C 61.733,98.3023 62.3996,96.3023 62.5,94C 62.7258,91.3291 62.0591,88.9958 60.5,87C 61.4158,86.7216 62.0825,86.2216 62.5,85.5 Z"/></g>
<g><path style="opacity:1" fill="#1e1d0e" d="M 140.5,78.5 C 147.486,78.331 149.153,81.1643 145.5,87C 150.467,90.531 150.801,94.531 146.5,99C 142.896,101.135 139.563,100.968 136.5,98.5C 139.443,98.4659 142.443,98.1326 145.5,97.5C 147.007,95.0314 146.673,92.8647 144.5,91C 142.956,90.7104 141.623,90.0437 140.5,89C 143.703,87.8281 145.203,85.6614 145,82.5C 144.261,81.4258 143.261,80.7591 142,80.5C 140.056,81.4394 138.389,82.7727 137,84.5C 136.868,81.7658 138.035,79.7658 140.5,78.5 Z"/></g>
<g><path style="opacity:1" fill="#101919" d="M 224.5,85.5 C 225.818,88.2575 226.485,91.4242 226.5,95C 226.333,98.1667 226.167,101.333 226,104.5C 224.152,107.041 221.652,108.041 218.5,107.5C 218.5,106.5 218.5,105.5 218.5,104.5C 219.93,104.421 221.264,104.754 222.5,105.5C 223.809,99.2779 223.809,93.1112 222.5,87C 223.416,86.7216 224.082,86.2216 224.5,85.5 Z"/></g>
<g><path style="opacity:1" fill="#62d9db" d="M 291.5,85.5 C 293.252,85.4176 294.252,86.2509 294.5,88C 293.785,90.6053 292.452,92.772 290.5,94.5C 289.119,94.0004 288.453,93.0004 288.5,91.5C 289.489,89.5061 290.489,87.5061 291.5,85.5 Z"/></g>
<g><path style="opacity:1" fill="#0f1818" d="M 310.5,85.5 C 315.56,84.6684 318.227,86.6684 318.5,91.5C 315.5,91.5 312.5,91.5 309.5,91.5C 310.396,98.8364 313.563,100.17 319,95.5C 319.163,97.3867 318.329,98.8867 316.5,100C 310.372,102.029 307.038,99.8627 306.5,93.5C 306.782,90.2691 308.115,87.6024 310.5,85.5 Z"/></g>
<g><path style="opacity:1" fill="#101919" d="M 321.5,86.5 C 323.265,85.5386 325.265,85.2053 327.5,85.5C 328.167,90.8333 328.833,90.8333 329.5,85.5C 331.199,85.3398 332.866,85.5065 334.5,86C 332.308,87.3587 330.641,89.1921 329.5,91.5C 331.131,94.5964 333.131,97.4298 335.5,100C 333.5,100.667 331.5,100.667 329.5,100C 330.647,97.9154 329.98,96.4154 327.5,95.5C 325.483,96.6729 324.816,98.1729 325.5,100C 324.167,100.667 322.833,100.667 321.5,100C 323.181,97.656 324.848,95.3227 326.5,93C 325.423,90.3308 323.757,88.1641 321.5,86.5 Z"/></g>
<g><path style="opacity:1" fill="#0a1111" d="M 340.5,85.5 C 343.365,85.0548 345.865,85.7215 348,87.5C 347.948,91.6564 348.781,95.4897 350.5,99C 349.892,99.8699 349.059,100.37 348,100.5C 344.892,100.044 341.725,99.8776 338.5,100C 337.233,98.2041 337.233,96.3707 338.5,94.5C 341.293,93.1214 343.626,91.288 345.5,89C 344.968,86.9803 343.635,86.147 341.5,86.5C 341.5,87.8333 341.5,89.1667 341.5,90.5C 340.5,90.5 339.5,90.5 338.5,90.5C 338.392,88.4862 339.058,86.8195 340.5,85.5 Z"/></g>
<g><path style="opacity:1" fill="#0b1313" d="M 404.5,85.5 C 409.709,84.3961 412.709,86.3961 413.5,91.5C 410.167,91.5 406.833,91.5 403.5,91.5C 404.396,98.8364 407.563,100.17 413,95.5C 412.703,98.6242 410.87,100.291 407.5,100.5C 405.088,100.594 403.255,99.5938 402,97.5C 400.888,93.0186 401.721,89.0186 404.5,85.5 Z"/></g>
<g><path style="opacity:1" fill="#0e1717" d="M 456.5,85.5 C 457.75,85.5774 458.583,86.244 459,87.5C 461.667,84.8333 464.333,84.8333 467,87.5C 469.747,84.9659 472.413,84.9659 475,87.5C 475.333,91.1667 475.667,94.8333 476,98.5C 476.5,99 477,99.5 477.5,100C 475.167,100.667 472.833,100.667 470.5,100C 471.733,98.3023 472.4,96.3023 472.5,94C 472.333,92.1667 472.167,90.3333 472,88.5C 470.667,87.1667 469.333,87.1667 468,88.5C 467.833,90.3333 467.667,92.1667 467.5,94C 467.6,96.3023 468.267,98.3023 469.5,100C 467.167,100.667 464.833,100.667 462.5,100C 464.045,98.1781 464.712,96.0114 464.5,93.5C 465.593,88.6111 463.926,86.9444 459.5,88.5C 459.167,90.3333 458.833,92.1667 458.5,94C 458.6,96.3023 459.267,98.3023 460.5,100C 458.167,100.667 455.833,100.667 453.5,100C 454.733,98.3023 455.4,96.3023 455.5,94C 455.346,91.6209 454.68,89.4542 453.5,87.5C 454.602,86.8243 455.602,86.1577 456.5,85.5 Z"/></g>
<g><path style="opacity:1" fill="#242210" d="M 32.5,85.5 C 41.5431,85.0312 44.7098,89.0312 42,97.5C 37.368,101.698 33.0346,101.364 29,96.5C 27.6624,91.9597 28.8291,88.293 32.5,85.5 Z"/></g>
<g><path style="opacity:1" fill="#f5f350" d="M 33.5,87.5 C 35.7224,87.178 37.5557,87.8446 39,89.5C 39.7835,92.7603 39.6168,95.9269 38.5,99C 36.2992,99.8249 34.4659,99.3249 33,97.5C 32.2534,94.0764 32.42,90.7431 33.5,87.5 Z"/></g>
<g><path style="opacity:1" fill="#0c1414" d="M 233.5,85.5 C 241.775,84.7064 244.942,88.373 243,96.5C 240.947,100.292 237.781,101.458 233.5,100C 228.203,95.2153 228.203,90.382 233.5,85.5 Z"/></g>
<g><path style="opacity:1" fill="#6ceff1" d="M 233.5,87.5 C 236.547,86.8554 238.713,87.8554 240,90.5C 240.978,93.6693 240.478,96.5027 238.5,99C 235.702,99.5608 233.869,98.3941 233,95.5C 232.398,92.7795 232.565,90.1128 233.5,87.5 Z"/></g>
<g><path style="opacity:1" fill="#65dfe0" d="M 404.5,87.5 C 406.167,87.5 407.833,87.5 409.5,87.5C 409.5,88.5 409.5,89.5 409.5,90.5C 407.833,90.5 406.167,90.5 404.5,90.5C 404.5,89.5 404.5,88.5 404.5,87.5 Z"/></g>
<g><path style="opacity:1" fill="#0f1818" d="M 427.5,85.5 C 430.908,84.828 433.575,85.828 435.5,88.5C 435.192,89.3081 434.692,89.9747 434,90.5C 432.492,86.326 430.159,85.6593 427,88.5C 425.295,96.4795 427.962,98.8128 435,95.5C 434.143,100.118 431.31,101.618 426.5,100C 422.268,94.8087 422.601,89.9754 427.5,85.5 Z"/></g>
<g><path style="opacity:1" fill="#152323" d="M 441.5,85.5 C 450.543,85.0312 453.71,89.0312 451,97.5C 446.368,101.698 442.035,101.364 438,96.5C 436.662,91.9597 437.829,88.293 441.5,85.5 Z"/></g>
<g><path style="opacity:1" fill="#6ef3f5" d="M 442.5,87.5 C 444.722,87.178 446.556,87.8446 448,89.5C 448.784,92.7603 448.617,95.9269 447.5,99C 444.783,100.033 442.949,99.1997 442,96.5C 441.264,93.408 441.431,90.408 442.5,87.5 Z"/></g>
<g><path style="opacity:1" fill="#68e5e7" d="M 382.5,87.5 C 386.004,87.7921 387.671,89.7921 387.5,93.5C 387.462,99.0934 385.296,100.427 381,97.5C 380.063,93.8326 380.563,90.4993 382.5,87.5 Z"/></g>
<g><path style="opacity:1" fill="#60d4d5" d="M 310.5,87.5 C 312.665,87.1159 314.332,87.7826 315.5,89.5C 313.5,90.8333 311.5,90.8333 309.5,89.5C 309.863,88.8165 310.196,88.1499 310.5,87.5 Z"/></g>
<g><path style="opacity:1" fill="#66e1e3" d="M 343.5,92.5 C 344.649,92.7911 345.316,93.6244 345.5,95C 345.719,96.9713 344.885,98.1379 343,98.5C 341.5,98.3333 340.667,97.5 340.5,96C 341.071,94.4009 342.071,93.2342 343.5,92.5 Z"/></g>
<g><path style="opacity:1" fill="#000101" d="M 418.5,97.5 C 419.5,97.5 420.5,97.5 421.5,97.5C 421.5,98.5 421.5,99.5 421.5,100.5C 420.5,100.5 419.5,100.5 418.5,100.5C 418.5,99.5 418.5,98.5 418.5,97.5 Z"/></g>
<g><path style="opacity:1" fill="#000000" d="M 11.5,116.5 C 50.1667,116.5 88.8333,116.5 127.5,116.5C 127.5,131.5 127.5,146.5 127.5,161.5C 88.8333,161.5 50.1667,161.5 11.5,161.5C 11.5,146.5 11.5,131.5 11.5,116.5 Z"/></g>
<g><path style="opacity:1" fill="#000000" d="M 131.5,116.5 C 158.167,116.5 184.833,116.5 211.5,116.5C 211.5,131.5 211.5,146.5 211.5,161.5C 184.833,161.5 158.167,161.5 131.5,161.5C 131.5,146.5 131.5,131.5 131.5,116.5 Z"/></g>
<g><path style="opacity:1" fill="#000000" d="M 215.5,116.5 C 327.167,116.5 438.833,116.5 550.5,116.5C 550.5,131.5 550.5,146.5 550.5,161.5C 438.833,161.5 327.167,161.5 215.5,161.5C 215.5,146.5 215.5,131.5 215.5,116.5 Z"/></g>
<g><path style="opacity:1" fill="#faf852" d="M 13.5,118.5 C 50.8333,118.5 88.1667,118.5 125.5,118.5C 125.5,132.167 125.5,145.833 125.5,159.5C 88.1667,159.5 50.8333,159.5 13.5,159.5C 13.5,145.833 13.5,132.167 13.5,118.5 Z"/></g>
<g><path style="opacity:1" fill="#fcfa53" d="M 133.5,118.5 C 158.833,118.5 184.167,118.5 209.5,118.5C 209.5,132.167 209.5,145.833 209.5,159.5C 184.167,159.5 158.833,159.5 133.5,159.5C 133.5,145.833 133.5,132.167 133.5,118.5 Z"/></g>
<g><path style="opacity:1" fill="#70f7f9" d="M 217.5,118.5 C 327.833,118.5 438.167,118.5 548.5,118.5C 548.5,132.167 548.5,145.833 548.5,159.5C 438.167,159.5 327.833,159.5 217.5,159.5C 217.5,145.833 217.5,132.167 217.5,118.5 Z"/></g>
<g><path style="opacity:1" fill="#7b7a29" d="M 25.5,129.5 C 23.5,128.167 21.5,128.167 19.5,129.5C 18.9569,129.44 18.6236,129.107 18.5,128.5C 21.5,127.167 24.5,127.167 27.5,128.5C 27.0431,129.298 26.3764,129.631 25.5,129.5 Z"/></g>
<g><path style="opacity:1" fill="#0a1212" d="M 223.5,127.5 C 224.5,127.5 225.5,127.5 226.5,127.5C 226.5,128.5 226.5,129.5 226.5,130.5C 225.5,130.5 224.5,130.5 223.5,130.5C 223.5,129.5 223.5,128.5 223.5,127.5 Z"/></g>
<g><path style="opacity:1" fill="#091111" d="M 408.5,127.5 C 409.5,127.5 410.5,127.5 411.5,127.5C 410.892,134.948 411.559,142.115 413.5,149C 411.167,149.667 408.833,149.667 406.5,149C 407.783,145.936 408.45,142.603 408.5,139C 408.45,135.397 407.783,132.064 406.5,129C 407.416,128.722 408.082,128.222 408.5,127.5 Z"/></g>
<g><path style="opacity:1" fill="#0c0b03" d="M 19.5,129.5 C 21.5,128.167 23.5,128.167 25.5,129.5C 24.6728,134.985 24.1728,140.652 24,146.5C 22.9718,148.516 21.3052,149.516 19,149.5C 15.2831,149.087 14.7831,147.754 17.5,145.5C 18.3333,146.5 19.1667,147.5 20,148.5C 20.3333,148.167 20.6667,147.833 21,147.5C 21.6667,141.833 21.6667,136.167 21,130.5C 20.6174,129.944 20.1174,129.611 19.5,129.5 Z"/></g>
<g><path style="opacity:1" fill="#1b1a0b" d="M 140.5,127.5 C 145.196,126.869 147.863,128.869 148.5,133.5C 147.692,138.817 145.026,142.984 140.5,146C 143.993,147.004 147.159,146.504 150,144.5C 150.265,146.163 149.765,147.663 148.5,149C 136.126,151.353 134.293,148.853 143,141.5C 145.076,138.783 145.743,135.783 145,132.5C 141.512,129.538 138.845,130.205 137,134.5C 136.576,131.348 137.743,129.014 140.5,127.5 Z"/></g>
<g><path style="opacity:1" fill="#161509" d="M 153.5,128.5 C 157.555,128.176 161.555,128.509 165.5,129.5C 162.888,136 160.888,142.667 159.5,149.5C 158.325,149.719 157.325,149.386 156.5,148.5C 158.709,142.539 160.709,136.539 162.5,130.5C 158.993,129.994 155.826,130.66 153,132.5C 152.421,131.072 152.588,129.738 153.5,128.5 Z"/></g>
<g><path style="opacity:1" fill="#101a1a" d="M 308.5,134.5 C 309.858,133.374 311.192,133.374 312.5,134.5C 310.714,137.404 310.381,140.404 311.5,143.5C 316.017,140.056 316.684,135.889 313.5,131C 307.713,128.418 302.546,129.251 298,133.5C 294.888,139.873 296.388,144.707 302.5,148C 306.332,148.762 309.998,148.262 313.5,146.5C 314.696,146.846 314.696,147.346 313.5,148C 306.463,150.884 300.296,149.717 295,144.5C 292.957,131.875 298.457,126.375 311.5,128C 318.418,132.582 319.084,137.915 313.5,144C 310.261,143.871 307.094,144.038 304,144.5C 300.261,144.095 298.927,142.095 300,138.5C 301.609,133.979 304.443,132.646 308.5,134.5 Z"/></g>
<g><path style="opacity:1" fill="#121006" d="M 45.5,134.5 C 46.7498,134.577 47.5831,135.244 48,136.5C 50.3333,133.833 52.6667,133.833 55,136.5C 55.3333,140.167 55.6667,143.833 56,147.5C 56.5,148 57,148.5 57.5,149C 55.5,149.667 53.5,149.667 51.5,149C 53.5234,145.817 54.0234,142.317 53,138.5C 51.4506,135.997 49.7839,135.997 48,138.5C 46.9766,142.317 47.4766,145.817 49.5,149C 47.1667,149.667 44.8333,149.667 42.5,149C 43.733,147.302 44.3996,145.302 44.5,143C 44.7258,140.329 44.0591,137.996 42.5,136C 43.7375,135.768 44.7375,135.268 45.5,134.5 Z"/></g>
<g><path style="opacity:1" fill="#121006" d="M 61.5,134.5 C 62.7498,134.577 63.5831,135.244 64,136.5C 66.3333,133.833 68.6667,133.833 71,136.5C 71.3333,140.167 71.6667,143.833 72,147.5C 72.5,148 73,148.5 73.5,149C 71.5,149.667 69.5,149.667 67.5,149C 69.5234,145.817 70.0234,142.317 69,138.5C 67.4506,135.997 65.7839,135.997 64,138.5C 62.9766,142.317 63.4766,145.817 65.5,149C 63.1667,149.667 60.8333,149.667 58.5,149C 59.733,147.302 60.3996,145.302 60.5,143C 60.7258,140.329 60.0591,137.996 58.5,136C 59.7375,135.768 60.7375,135.268 61.5,134.5 Z"/></g>
<g><path style="opacity:1" fill="#181709" d="M 32.5,134.5 C 37.451,133.629 40.1176,135.629 40.5,140.5C 37.5,140.5 34.5,140.5 31.5,140.5C 32.4822,147.763 35.8156,149.263 41.5,145C 38.4922,149.75 34.6589,150.584 30,147.5C 27.4582,142.438 28.2915,138.105 32.5,134.5 Z"/></g>
<g><path style="opacity:1" fill="#1b190b" d="M 74.5,135.5 C 76.6282,134.371 78.9615,134.204 81.5,135C 80.8333,135.667 80.1667,136.333 79.5,137C 82.038,145.449 84.3713,145.449 86.5,137C 85.5075,134.579 86.5075,133.912 89.5,135C 86.2899,141.283 83.4566,147.783 81,154.5C 79.5557,156.155 77.7224,156.822 75.5,156.5C 75.5,155.5 75.5,154.5 75.5,153.5C 79.099,154.062 81.099,152.562 81.5,149C 80.0586,143.948 77.7253,139.448 74.5,135.5 Z"/></g>
<g><path style="opacity:1" fill="#101919" d="M 224.5,134.5 C 225.818,137.258 226.485,140.424 226.5,144C 226.333,147.167 226.167,150.333 226,153.5C 224.152,156.041 221.652,157.041 218.5,156.5C 218.5,155.5 218.5,154.5 218.5,153.5C 219.93,153.421 221.264,153.754 222.5,154.5C 223.809,148.278 223.809,142.111 222.5,136C 223.416,135.722 224.082,135.222 224.5,134.5 Z"/></g>
<g><path style="opacity:1" fill="#0f1717" d="M 233.5,134.5 C 238.206,133.881 240.873,135.881 241.5,140.5C 238.5,140.5 235.5,140.5 232.5,140.5C 233.575,148.248 236.742,149.248 242,143.5C 241.09,148.718 237.923,150.551 232.5,149C 228.268,143.809 228.601,138.975 233.5,134.5 Z"/></g>
<g><path style="opacity:1" fill="#080e0e" d="M 245.5,134.5 C 247.124,134.36 248.29,135.027 249,136.5C 251.333,133.833 253.667,133.833 256,136.5C 256.333,140.167 256.667,143.833 257,147.5C 257.5,148 258,148.5 258.5,149C 256.167,149.667 253.833,149.667 251.5,149C 252.733,147.302 253.4,145.302 253.5,143C 253.333,141.167 253.167,139.333 253,137.5C 251.887,136.289 250.72,136.289 249.5,137.5C 249.167,139.333 248.833,141.167 248.5,143C 248.6,145.302 249.267,147.302 250.5,149C 248.167,149.667 245.833,149.667 243.5,149C 244.733,147.302 245.4,145.302 245.5,143C 245.726,140.329 245.059,137.996 243.5,136C 244.416,135.722 245.082,135.222 245.5,134.5 Z"/></g>
<g><path style="opacity:1" fill="#080e0e" d="M 261.5,134.5 C 263.124,134.36 264.29,135.027 265,136.5C 267.333,133.833 269.667,133.833 272,136.5C 272.333,140.167 272.667,143.833 273,147.5C 273.5,148 274,148.5 274.5,149C 272.167,149.667 269.833,149.667 267.5,149C 268.733,147.302 269.4,145.302 269.5,143C 269.333,141.167 269.167,139.333 269,137.5C 267.887,136.289 266.72,136.289 265.5,137.5C 265.167,139.333 264.833,141.167 264.5,143C 264.6,145.302 265.267,147.302 266.5,149C 264.167,149.667 261.833,149.667 259.5,149C 260.733,147.302 261.4,145.302 261.5,143C 261.726,140.329 261.059,137.996 259.5,136C 260.416,135.722 261.082,135.222 261.5,134.5 Z"/></g>
<g><path style="opacity:1" fill="#101a1a" d="M 275.5,135.5 C 277.628,134.371 279.961,134.204 282.5,135C 281.572,135.388 280.905,136.055 280.5,137C 284.18,146.479 285.847,145.813 285.5,135C 287.167,134.333 288.833,134.333 290.5,135C 287.221,141.727 284.055,148.561 281,155.5C 278.8,156.99 276.966,156.657 275.5,154.5C 279.325,154.458 281.658,152.625 282.5,149C 281.052,143.935 278.719,139.435 275.5,135.5 Z"/></g>
<g><path style="opacity:1" fill="#67e3e5" d="M 308.5,134.5 C 309.055,138.387 307.721,141.387 304.5,143.5C 302.423,138.823 303.756,135.823 308.5,134.5 Z"/></g>
<g><path style="opacity:1" fill="#0b1313" d="M 324.5,134.5 C 329.709,133.396 332.709,135.396 333.5,140.5C 330.167,140.5 326.833,140.5 323.5,140.5C 324.396,147.836 327.563,149.17 333,144.5C 332.703,147.624 330.87,149.291 327.5,149.5C 325.088,149.594 323.255,148.594 322,146.5C 320.888,142.019 321.721,138.019 324.5,134.5 Z"/></g>
<g><path style="opacity:1" fill="#101919" d="M 335.5,135.5 C 337.628,134.371 339.961,134.204 342.5,135C 341.269,136.183 341.269,137.349 342.5,138.5C 344.488,137.711 344.821,136.545 343.5,135C 345.167,134.333 346.833,134.333 348.5,135C 346.649,136.684 344.982,138.517 343.5,140.5C 345.327,143.82 347.66,146.653 350.5,149C 348.167,149.667 345.833,149.667 343.5,149C 343.957,148.586 344.291,148.086 344.5,147.5C 343.469,146.3 342.635,144.966 342,143.5C 340.954,145.09 339.787,146.59 338.5,148C 338.833,148.333 339.167,148.667 339.5,149C 338.167,149.667 336.833,149.667 335.5,149C 342.123,144.363 342.123,139.863 335.5,135.5 Z"/></g>
<g><path style="opacity:1" fill="#0e1716" d="M 354.5,134.5 C 357.365,134.055 359.865,134.722 362,136.5C 361.948,140.656 362.781,144.49 364.5,148C 363.892,148.87 363.059,149.37 362,149.5C 359.21,148.868 356.377,148.702 353.5,149C 351.789,147.867 351.289,146.367 352,144.5C 354.693,142.427 357.193,140.26 359.5,138C 357.188,134.641 355.854,135.141 355.5,139.5C 354.5,139.5 353.5,139.5 352.5,139.5C 352.392,137.486 353.058,135.82 354.5,134.5 Z"/></g>
<g><path style="opacity:1" fill="#0e1717" d="M 368.5,134.5 C 369.75,134.577 370.583,135.244 371,136.5C 373.667,133.833 376.333,133.833 379,136.5C 381.747,133.966 384.413,133.966 387,136.5C 387.333,140.167 387.667,143.833 388,147.5C 388.5,148 389,148.5 389.5,149C 387.167,149.667 384.833,149.667 382.5,149C 383.733,147.302 384.4,145.302 384.5,143C 384.333,141.167 384.167,139.333 384,137.5C 382.667,136.167 381.333,136.167 380,137.5C 379.833,139.333 379.667,141.167 379.5,143C 379.6,145.302 380.267,147.302 381.5,149C 379.167,149.667 376.833,149.667 374.5,149C 376.045,147.178 376.712,145.011 376.5,142.5C 377.593,137.611 375.926,135.944 371.5,137.5C 371.167,139.333 370.833,141.167 370.5,143C 370.6,145.302 371.267,147.302 372.5,149C 370.167,149.667 367.833,149.667 365.5,149C 366.733,147.302 367.4,145.302 367.5,143C 367.346,140.621 366.68,138.454 365.5,136.5C 366.602,135.824 367.602,135.158 368.5,134.5 Z"/></g>
<g><path style="opacity:1" fill="#0a1111" d="M 392.5,134.5 C 395.458,135.356 398.458,135.523 401.5,135C 402.667,135.5 403.5,136.333 404,137.5C 406.227,145.435 403.394,149.435 395.5,149.5C 395.083,152.079 395.75,154.246 397.5,156C 394.833,156.667 392.167,156.667 389.5,156C 390.416,155.626 391.25,155.126 392,154.5C 392.667,148.833 392.667,143.167 392,137.5C 390.205,136.281 390.372,135.281 392.5,134.5 Z"/></g>
<g><path style="opacity:1" fill="#0f1717" d="M 419.5,134.5 C 424.206,133.881 426.873,135.881 427.5,140.5C 424.5,140.5 421.5,140.5 418.5,140.5C 419.575,148.248 422.742,149.248 428,143.5C 427.09,148.718 423.923,150.551 418.5,149C 414.268,143.809 414.601,138.975 419.5,134.5 Z"/></g>
<g><path style="opacity:1" fill="#101919" d="M 443.5,135.5 C 445.017,134.265 446.684,134.265 448.5,135.5C 449.833,136.833 449.833,138.167 448.5,139.5C 447.234,137.596 445.567,136.263 443.5,135.5 Z"/></g>
<g><path style="opacity:1" fill="#0e1717" d="M 470.5,134.5 C 471.75,134.577 472.583,135.244 473,136.5C 475.667,133.833 478.333,133.833 481,136.5C 483.747,133.966 486.413,133.966 489,136.5C 489.333,140.167 489.667,143.833 490,147.5C 490.5,148 491,148.5 491.5,149C 489.167,149.667 486.833,149.667 484.5,149C 485.733,147.302 486.4,145.302 486.5,143C 486.333,141.167 486.167,139.333 486,137.5C 484.667,136.167 483.333,136.167 482,137.5C 481.833,139.333 481.667,141.167 481.5,143C 481.6,145.302 482.267,147.302 483.5,149C 481.167,149.667 478.833,149.667 476.5,149C 478.045,147.178 478.712,145.011 478.5,142.5C 479.593,137.611 477.926,135.944 473.5,137.5C 473.167,139.333 472.833,141.167 472.5,143C 472.6,145.302 473.267,147.302 474.5,149C 472.167,149.667 469.833,149.667 467.5,149C 468.733,147.302 469.4,145.302 469.5,143C 469.346,140.621 468.68,138.454 467.5,136.5C 468.602,135.824 469.602,135.158 470.5,134.5 Z"/></g>
<g><path style="opacity:1" fill="#6ae9eb" d="M 233.5,136.5 C 234.833,136.5 236.167,136.5 237.5,136.5C 237.5,137.5 237.5,138.5 237.5,139.5C 235.712,139.785 234.045,139.452 232.5,138.5C 232.863,137.817 233.196,137.15 233.5,136.5 Z"/></g>
<g><path style="opacity:1" fill="#65dfe0" d="M 324.5,136.5 C 326.167,136.5 327.833,136.5 329.5,136.5C 329.5,137.5 329.5,138.5 329.5,139.5C 327.833,139.5 326.167,139.5 324.5,139.5C 324.5,138.5 324.5,137.5 324.5,136.5 Z"/></g>
<g><path style="opacity:1" fill="#6ae9eb" d="M 419.5,136.5 C 420.833,136.5 422.167,136.5 423.5,136.5C 423.5,137.5 423.5,138.5 423.5,139.5C 421.712,139.785 420.045,139.452 418.5,138.5C 418.863,137.817 419.196,137.15 419.5,136.5 Z"/></g>
<g><path style="opacity:1" fill="#152323" d="M 455.5,134.5 C 464.543,134.031 467.71,138.031 465,146.5C 460.368,150.698 456.035,150.364 452,145.5C 450.662,140.96 451.829,137.293 455.5,134.5 Z"/></g>
<g><path style="opacity:1" fill="#6ef3f5" d="M 456.5,136.5 C 458.722,136.178 460.556,136.845 462,138.5C 462.784,141.76 462.617,144.927 461.5,148C 458.783,149.033 456.949,148.2 456,145.5C 455.264,142.408 455.431,139.408 456.5,136.5 Z"/></g>
<g><path style="opacity:1" fill="#66e1e3" d="M 396.5,136.5 C 398.39,136.297 399.89,136.963 401,138.5C 401.667,141.167 401.667,143.833 401,146.5C 399,149.167 397,149.167 395,146.5C 394.037,142.851 394.537,139.518 396.5,136.5 Z"/></g>
<g><path style="opacity:1" fill="#111b1b" d="M 440.5,135.5 C 441.239,135.369 441.906,135.536 442.5,136C 439.833,139.333 439.833,142.667 442.5,146C 445.419,146.54 448.086,146.207 450.5,145C 446.397,150.768 442.23,150.935 438,145.5C 437.024,141.673 437.857,138.34 440.5,135.5 Z"/></g>
<g><path style="opacity:1" fill="#d6d346" d="M 32.5,136.5 C 34.6648,136.116 36.3315,136.783 37.5,138.5C 35.5,139.833 33.5,139.833 31.5,138.5C 31.8627,137.817 32.1961,137.15 32.5,136.5 Z"/></g>
<g><path style="opacity:1" fill="#6ceef0" d="M 357.5,141.5 C 358.649,141.791 359.316,142.624 359.5,144C 359.576,146.756 358.243,147.923 355.5,147.5C 355.253,145.142 355.919,143.142 357.5,141.5 Z"/></g>
<g><path style="opacity:1" fill="#030808" d="M 432.5,146.5 C 433.5,146.5 434.5,146.5 435.5,146.5C 435.5,147.5 435.5,148.5 435.5,149.5C 434.5,149.5 433.5,149.5 432.5,149.5C 432.5,148.5 432.5,147.5 432.5,146.5 Z"/></g>
<g><path style="opacity:1" fill="#000000" d="M 11.5,165.5 C 50.1667,165.5 88.8333,165.5 127.5,165.5C 127.5,180.5 127.5,195.5 127.5,210.5C 88.8333,210.5 50.1667,210.5 11.5,210.5C 11.5,195.5 11.5,180.5 11.5,165.5 Z"/></g>
<g><path style="opacity:1" fill="#000000" d="M 131.5,165.5 C 158.167,165.5 184.833,165.5 211.5,165.5C 211.5,180.5 211.5,195.5 211.5,210.5C 184.833,210.5 158.167,210.5 131.5,210.5C 131.5,195.5 131.5,180.5 131.5,165.5 Z"/></g>
<g><path style="opacity:1" fill="#000000" d="M 215.5,165.5 C 327.167,165.5 438.833,165.5 550.5,165.5C 550.5,180.5 550.5,195.5 550.5,210.5C 438.833,210.5 327.167,210.5 215.5,210.5C 215.5,195.5 215.5,180.5 215.5,165.5 Z"/></g>
<g><path style="opacity:1" fill="#fdfb53" d="M 13.5,167.5 C 50.8333,167.5 88.1667,167.5 125.5,167.5C 125.5,181.167 125.5,194.833 125.5,208.5C 88.1667,208.5 50.8333,208.5 13.5,208.5C 13.5,194.833 13.5,181.167 13.5,167.5 Z"/></g>
<g><path style="opacity:1" fill="#fdfb53" d="M 133.5,167.5 C 158.833,167.5 184.167,167.5 209.5,167.5C 209.5,181.167 209.5,194.833 209.5,208.5C 184.167,208.5 158.833,208.5 133.5,208.5C 133.5,194.833 133.5,181.167 133.5,167.5 Z"/></g>
<g><path style="opacity:1" fill="#70f7f9" d="M 217.5,167.5 C 327.833,167.5 438.167,167.5 548.5,167.5C 548.5,181.167 548.5,194.833 548.5,208.5C 438.167,208.5 327.833,208.5 217.5,208.5C 217.5,194.833 217.5,181.167 217.5,167.5 Z"/></g>
<g><path style="opacity:1" fill="#7a7928" d="M 34.5,177.5 C 28.5,177.5 22.5,177.5 16.5,177.5C 16.2322,179.099 16.5655,180.432 17.5,181.5C 17.44,182.043 17.1067,182.376 16.5,182.5C 15.5344,180.604 15.2011,178.604 15.5,176.5C 22.0221,176.177 28.3554,176.51 34.5,177.5 Z"/></g>
<g><path style="opacity:1" fill="#020404" d="M 386.5,176.5 C 387.833,176.5 389.167,176.5 390.5,176.5C 389.892,183.948 390.559,191.115 392.5,198C 390.167,198.667 387.833,198.667 385.5,198C 386.783,194.936 387.45,191.603 387.5,188C 387.45,184.397 386.783,181.064 385.5,178C 386.056,177.617 386.389,177.117 386.5,176.5 Z"/></g>
<g><path style="opacity:1" fill="#010100" d="M 34.5,177.5 C 34.6602,179.199 34.4935,180.866 34,182.5C 33.6232,181.058 32.7899,180.058 31.5,179.5C 30.0813,178.549 28.4147,178.216 26.5,178.5C 26.1771,184.69 26.5104,190.69 27.5,196.5C 27.9175,197.222 28.5842,197.722 29.5,198C 26.5,198.667 23.5,198.667 20.5,198C 21.4162,197.626 22.2496,197.126 23,196.5C 23.4995,190.509 23.6662,184.509 23.5,178.5C 21.8008,178.34 20.1341,178.506 18.5,179C 17.7476,179.671 17.4142,180.504 17.5,181.5C 16.5655,180.432 16.2322,179.099 16.5,177.5C 22.5,177.5 28.5,177.5 34.5,177.5 Z"/></g>
<g><path style="opacity:1" fill="#1b190c" d="M 159.5,177.5 C 160.167,183.833 160.833,190.167 161.5,196.5C 161.918,197.222 162.584,197.722 163.5,198C 160.833,198.667 158.167,198.667 155.5,198C 156.78,195.106 157.446,191.939 157.5,188.5C 157.479,185.248 157.146,182.081 156.5,179C 157.244,177.961 158.244,177.461 159.5,177.5 Z"/></g>
<g><path style="opacity:1" fill="#8d8b2d" d="M 159.5,177.5 C 159.56,176.957 159.893,176.624 160.5,176.5C 161.497,183.134 161.83,189.8 161.5,196.5C 160.833,190.167 160.167,183.833 159.5,177.5 Z"/></g>
<g><path style="opacity:1" fill="#9c9a32" d="M 31.5,179.5 C 30.1667,179.5 28.8333,179.5 27.5,179.5C 27.5,185.167 27.5,190.833 27.5,196.5C 26.5104,190.69 26.1771,184.69 26.5,178.5C 28.4147,178.216 30.0813,178.549 31.5,179.5 Z"/></g>
<g><path style="opacity:1" fill="#142222" d="M 224.5,179.5 C 225.434,180.568 225.768,181.901 225.5,183.5C 229.5,184.167 229.5,184.833 225.5,185.5C 225.5,189.167 225.5,192.833 225.5,196.5C 226.552,196.351 227.552,196.517 228.5,197C 226.798,198.718 224.965,198.885 223,197.5C 223.018,192.931 222.185,188.597 220.5,184.5C 221.857,182.814 223.19,181.148 224.5,179.5 Z"/></g>
<g><path style="opacity:1" fill="#111c1c" d="M 281.5,176.5 C 287.624,175.7 292.458,177.7 296,182.5C 297.202,186.793 296.035,190.293 292.5,193C 288.5,192.333 284.5,192.333 280.5,193C 277.552,189.073 278.218,185.739 282.5,183C 285.663,182.932 288.663,182.932 291.5,183C 289.579,186.018 289.246,189.185 290.5,192.5C 295.285,188.64 295.618,184.474 291.5,180C 284.915,176.958 279.748,178.458 276,184.5C 274.075,190.431 275.908,194.598 281.5,197C 285.332,197.762 288.998,197.262 292.5,195.5C 292.833,195.667 293.167,195.833 293.5,196C 292.672,196.915 291.672,197.581 290.5,198C 282.85,200.304 277.017,198.138 273,191.5C 272.21,188.366 272.543,185.366 274,182.5C 276.114,179.879 278.614,177.879 281.5,176.5 Z"/></g>
<g><path style="opacity:1" fill="#171609" d="M 52.5,183.5 C 54.4815,184.817 56.4815,184.817 58.5,183.5C 60.0554,183.722 61.3887,184.389 62.5,185.5C 65.4508,183.032 68.2842,183.032 71,185.5C 70.9369,189.982 71.7703,194.148 73.5,198C 71.1667,198.667 68.8333,198.667 66.5,198C 67.733,196.302 68.3996,194.302 68.5,192C 68.3333,190.167 68.1667,188.333 68,186.5C 66.0624,185.14 64.3957,185.473 63,187.5C 61.9766,191.317 62.4766,194.817 64.5,198C 62.1667,198.667 59.8333,198.667 57.5,198C 58.733,196.302 59.3996,194.302 59.5,192C 59.3333,190.167 59.1667,188.333 59,186.5C 57.6667,185.167 56.3333,185.167 55,186.5C 54.8333,188.333 54.6667,190.167 54.5,192C 54.6004,194.302 55.267,196.302 56.5,198C 54.1667,198.667 51.8333,198.667 49.5,198C 51.8338,194.108 52.1671,189.942 50.5,185.5C 51.2427,184.818 51.9094,184.151 52.5,183.5 Z"/></g>
<g><path style="opacity:1" fill="#0e1616" d="M 248.5,183.5 C 250.482,184.817 252.482,184.817 254.5,183.5C 256.055,183.722 257.389,184.389 258.5,185.5C 261.451,183.032 264.284,183.032 267,185.5C 266.937,189.982 267.77,194.148 269.5,198C 267.167,198.667 264.833,198.667 262.5,198C 263.733,196.302 264.4,194.302 264.5,192C 264.333,190.167 264.167,188.333 264,186.5C 262.062,185.14 260.396,185.473 259,187.5C 257.977,191.317 258.477,194.817 260.5,198C 258.167,198.667 255.833,198.667 253.5,198C 254.733,196.302 255.4,194.302 255.5,192C 255.333,190.167 255.167,188.333 255,186.5C 253.667,185.167 252.333,185.167 251,186.5C 250.833,188.333 250.667,190.167 250.5,192C 250.6,194.302 251.267,196.302 252.5,198C 250.167,198.667 247.833,198.667 245.5,198C 247.834,194.108 248.167,189.942 246.5,185.5C 247.243,184.818 247.909,184.151 248.5,183.5 Z"/></g>
<g><path style="opacity:1" fill="#0e1717" d="M 350.5,185.5 C 352.669,182.932 355.002,182.932 357.5,185.5C 360.371,182.887 363.205,182.887 366,185.5C 365.937,189.982 366.77,194.148 368.5,198C 366.167,198.667 363.833,198.667 361.5,198C 362.733,196.302 363.4,194.302 363.5,192C 363.333,190.167 363.167,188.333 363,186.5C 361.062,185.14 359.396,185.473 358,187.5C 356.977,191.317 357.477,194.817 359.5,198C 357.167,198.667 354.833,198.667 352.5,198C 353.733,196.302 354.4,194.302 354.5,192C 354.333,190.167 354.167,188.333 354,186.5C 352.989,185.663 351.822,185.33 350.5,185.5 Z"/></g>
<g><path style="opacity:1" fill="#0a1112" d="M 371.5,183.5 C 372.75,183.577 373.583,184.244 374,185.5C 377.374,182.595 380.374,182.928 383,186.5C 384.297,191.117 383.13,194.95 379.5,198C 377.559,198.743 375.726,198.576 374,197.5C 372.788,200.834 373.621,203.334 376.5,205C 373.833,205.667 371.167,205.667 368.5,205C 369.783,201.936 370.45,198.603 370.5,195C 370.481,191.582 370.147,188.249 369.5,185C 370.416,184.722 371.082,184.222 371.5,183.5 Z"/></g>
<g><path style="opacity:1" fill="#0e1616" d="M 449.5,183.5 C 451.482,184.817 453.482,184.817 455.5,183.5C 457.055,183.722 458.389,184.389 459.5,185.5C 462.451,183.032 465.284,183.032 468,185.5C 467.937,189.982 468.77,194.148 470.5,198C 468.167,198.667 465.833,198.667 463.5,198C 464.733,196.302 465.4,194.302 465.5,192C 465.333,190.167 465.167,188.333 465,186.5C 463.062,185.14 461.396,185.473 460,187.5C 458.977,191.317 459.477,194.817 461.5,198C 459.167,198.667 456.833,198.667 454.5,198C 455.733,196.302 456.4,194.302 456.5,192C 456.333,190.167 456.167,188.333 456,186.5C 454.667,185.167 453.333,185.167 452,186.5C 451.833,188.333 451.667,190.167 451.5,192C 451.6,194.302 452.267,196.302 453.5,198C 451.167,198.667 448.833,198.667 446.5,198C 448.834,194.108 449.167,189.942 447.5,185.5C 448.243,184.818 448.909,184.151 449.5,183.5 Z"/></g>
<g><path style="opacity:1" fill="#1e1d0e" d="M 140.5,176.5 C 147.486,176.331 149.153,179.164 145.5,185C 150.467,188.531 150.801,192.531 146.5,197C 142.896,199.135 139.563,198.968 136.5,196.5C 139.443,196.466 142.443,196.133 145.5,195.5C 147.007,193.031 146.673,190.865 144.5,189C 142.956,188.71 141.623,188.044 140.5,187C 143.703,185.828 145.203,183.661 145,180.5C 144.261,179.426 143.261,178.759 142,178.5C 140.056,179.439 138.389,180.773 137,182.5C 136.868,179.766 138.035,177.766 140.5,176.5 Z"/></g>
<g><path style="opacity:1" fill="#62d9db" d="M 284.5,183.5 C 286.252,183.418 287.252,184.251 287.5,186C 286.785,188.605 285.452,190.772 283.5,192.5C 282.119,192 281.453,191 281.5,189.5C 282.489,187.506 283.489,185.506 284.5,183.5 Z"/></g>
<g><path style="opacity:1" fill="#0f1818" d="M 303.5,183.5 C 308.56,182.668 311.227,184.668 311.5,189.5C 308.5,189.5 305.5,189.5 302.5,189.5C 303.396,196.836 306.563,198.17 312,193.5C 312.163,195.387 311.329,196.887 309.5,198C 303.372,200.029 300.038,197.863 299.5,191.5C 299.782,188.269 301.115,185.602 303.5,183.5 Z"/></g>
<g><path style="opacity:1" fill="#101919" d="M 314.5,184.5 C 316.265,183.539 318.265,183.205 320.5,183.5C 321.167,188.833 321.833,188.833 322.5,183.5C 324.199,183.34 325.866,183.506 327.5,184C 325.308,185.359 323.641,187.192 322.5,189.5C 324.131,192.596 326.131,195.43 328.5,198C 326.5,198.667 324.5,198.667 322.5,198C 323.647,195.915 322.98,194.415 320.5,193.5C 318.483,194.673 317.816,196.173 318.5,198C 317.167,198.667 315.833,198.667 314.5,198C 316.181,195.656 317.848,193.323 319.5,191C 318.423,188.331 316.757,186.164 314.5,184.5 Z"/></g>
<g><path style="opacity:1" fill="#0a1111" d="M 333.5,183.5 C 336.365,183.055 338.865,183.722 341,185.5C 340.948,189.656 341.781,193.49 343.5,197C 342.892,197.87 342.059,198.37 341,198.5C 337.892,198.044 334.725,197.878 331.5,198C 330.233,196.204 330.233,194.371 331.5,192.5C 334.293,191.121 336.626,189.288 338.5,187C 337.968,184.98 336.635,184.147 334.5,184.5C 334.5,185.833 334.5,187.167 334.5,188.5C 333.5,188.5 332.5,188.5 331.5,188.5C 331.392,186.486 332.058,184.82 333.5,183.5 Z"/></g>
<g><path style="opacity:1" fill="#121c1c" d="M 350.5,185.5 C 348.828,189.911 349.162,194.078 351.5,198C 349.167,198.667 346.833,198.667 344.5,198C 346.045,196.178 346.712,194.011 346.5,191.5C 346.33,189.285 345.663,187.285 344.5,185.5C 345.628,184.738 346.795,184.071 348,183.5C 348.417,184.756 349.25,185.423 350.5,185.5 Z"/></g>
<g><path style="opacity:1" fill="#0b1313" d="M 397.5,183.5 C 402.709,182.396 405.709,184.396 406.5,189.5C 403.167,189.5 399.833,189.5 396.5,189.5C 397.396,196.836 400.563,198.17 406,193.5C 405.703,196.624 403.87,198.291 400.5,198.5C 398.088,198.594 396.255,197.594 395,195.5C 393.888,191.019 394.721,187.019 397.5,183.5 Z"/></g>
<g><path style="opacity:1" fill="#161408" d="M 37.5,183.5 C 45.775,182.706 48.9417,186.373 47,194.5C 44.9473,198.292 41.7806,199.458 37.5,198C 32.2029,193.215 32.2029,188.382 37.5,183.5 Z"/></g>
<g><path style="opacity:1" fill="#f3f150" d="M 37.5,185.5 C 40.5468,184.855 42.7135,185.855 44,188.5C 44.9782,191.669 44.4782,194.503 42.5,197C 39.7019,197.561 37.8686,196.394 37,193.5C 36.3985,190.779 36.5651,188.113 37.5,185.5 Z"/></g>
<g><path style="opacity:1" fill="#0c1414" d="M 233.5,183.5 C 241.775,182.706 244.942,186.373 243,194.5C 240.947,198.292 237.781,199.458 233.5,198C 228.203,193.215 228.203,188.382 233.5,183.5 Z"/></g>
<g><path style="opacity:1" fill="#6ceff1" d="M 233.5,185.5 C 236.547,184.855 238.713,185.855 240,188.5C 240.978,191.669 240.478,194.503 238.5,197C 235.702,197.561 233.869,196.394 233,193.5C 232.398,190.779 232.565,188.113 233.5,185.5 Z"/></g>
<g><path style="opacity:1" fill="#65dfe0" d="M 397.5,185.5 C 399.167,185.5 400.833,185.5 402.5,185.5C 402.5,186.5 402.5,187.5 402.5,188.5C 400.833,188.5 399.167,188.5 397.5,188.5C 397.5,187.5 397.5,186.5 397.5,185.5 Z"/></g>
<g><path style="opacity:1" fill="#121c1c" d="M 420.5,183.5 C 423.798,183.016 426.464,184.016 428.5,186.5C 428.167,187.5 427.5,188.167 426.5,188.5C 425.561,186.947 424.394,185.613 423,184.5C 421.739,184.759 420.739,185.426 420,186.5C 418.295,194.479 420.962,196.813 428,193.5C 427.143,198.118 424.31,199.618 419.5,198C 415.326,192.882 415.66,188.049 420.5,183.5 Z"/></g>
<g><path style="opacity:1" fill="#0c1414" d="M 434.5,183.5 C 442.775,182.706 445.942,186.373 444,194.5C 441.947,198.292 438.781,199.458 434.5,198C 429.203,193.215 429.203,188.382 434.5,183.5 Z"/></g>
<g><path style="opacity:1" fill="#6ceff1" d="M 434.5,185.5 C 437.547,184.855 439.713,185.855 441,188.5C 441.978,191.669 441.478,194.503 439.5,197C 436.702,197.561 434.869,196.394 434,193.5C 433.398,190.779 433.565,188.113 434.5,185.5 Z"/></g>
<g><path style="opacity:1" fill="#68e5e7" d="M 375.5,185.5 C 379.004,185.792 380.671,187.792 380.5,191.5C 380.462,197.093 378.296,198.427 374,195.5C 373.063,191.833 373.563,188.499 375.5,185.5 Z"/></g>
<g><path style="opacity:1" fill="#60d4d5" d="M 303.5,185.5 C 305.665,185.116 307.332,185.783 308.5,187.5C 306.5,188.833 304.5,188.833 302.5,187.5C 302.863,186.817 303.196,186.15 303.5,185.5 Z"/></g>
<g><path style="opacity:1" fill="#66e1e3" d="M 336.5,190.5 C 337.649,190.791 338.316,191.624 338.5,193C 338.719,194.971 337.885,196.138 336,196.5C 334.5,196.333 333.667,195.5 333.5,194C 334.071,192.401 335.071,191.234 336.5,190.5 Z"/></g>
<g><path style="opacity:1" fill="#142222" d="M 410.5,195.5 C 411.833,195.5 413.167,195.5 414.5,195.5C 414.5,196.5 414.5,197.5 414.5,198.5C 413.167,198.5 411.833,198.5 410.5,198.5C 410.5,197.5 410.5,196.5 410.5,195.5 Z"/></g>
<g><path style="opacity:1" fill="#000000" d="M 11.5,214.5 C 78.1667,214.5 144.833,214.5 211.5,214.5C 211.5,229.5 211.5,244.5 211.5,259.5C 144.833,259.5 78.1667,259.5 11.5,259.5C 11.5,244.5 11.5,229.5 11.5,214.5 Z"/></g>
<g><path style="opacity:1" fill="#000000" d="M 215.5,214.5 C 327.167,214.5 438.833,214.5 550.5,214.5C 550.5,229.5 550.5,244.5 550.5,259.5C 438.833,259.5 327.167,259.5 215.5,259.5C 215.5,244.5 215.5,229.5 215.5,214.5 Z"/></g>
<g><path style="opacity:1" fill="#fbf952" d="M 13.5,216.5 C 78.8333,216.5 144.167,216.5 209.5,216.5C 209.5,230.167 209.5,243.833 209.5,257.5C 144.167,257.5 78.8333,257.5 13.5,257.5C 13.5,243.833 13.5,230.167 13.5,216.5 Z"/></g>
<g><path style="opacity:1" fill="#71fafc" d="M 217.5,216.5 C 327.833,216.5 438.167,216.5 548.5,216.5C 548.5,230.167 548.5,243.833 548.5,257.5C 438.167,257.5 327.833,257.5 217.5,257.5C 217.5,243.833 217.5,230.167 217.5,216.5 Z"/></g>
<g><path style="opacity:1" fill="#7a7928" d="M 34.5,226.5 C 28.5,226.5 22.5,226.5 16.5,226.5C 16.2322,228.099 16.5655,229.432 17.5,230.5C 17.44,231.043 17.1067,231.376 16.5,231.5C 15.5344,229.604 15.2011,227.604 15.5,225.5C 22.0221,225.177 28.3554,225.51 34.5,226.5 Z"/></g>
<g><path style="opacity:1" fill="#090802" d="M 74.5,225.5 C 75.5,225.5 76.5,225.5 77.5,225.5C 77.3337,232.175 77.5004,238.842 78,245.5C 81.0555,247.039 80.5555,247.705 76.5,247.5C 72.4445,247.705 71.9445,247.039 75,245.5C 75.6667,239.833 75.6667,234.167 75,228.5C 74.2496,227.874 73.4162,227.374 72.5,227C 73.4158,226.722 74.0825,226.222 74.5,225.5 Z"/></g>
<g><path style="opacity:1" fill="#7e7d29" d="M 99.5,226.5 C 96.2869,226.19 93.2869,226.523 90.5,227.5C 89.9569,227.44 89.6236,227.107 89.5,226.5C 92.9798,225.194 96.3132,225.194 99.5,226.5 Z"/></g>
<g><path style="opacity:1" fill="#121005" d="M 155.5,225.5 C 156.5,225.5 157.5,225.5 158.5,225.5C 157.892,232.948 158.559,240.115 160.5,247C 158.167,247.667 155.833,247.667 153.5,247C 154.783,243.936 155.45,240.603 155.5,237C 155.45,233.397 154.783,230.064 153.5,227C 154.416,226.722 155.082,226.222 155.5,225.5 Z"/></g>
<g><path style="opacity:1" fill="#101818" d="M 225.5,225.5 C 232.486,225.331 234.153,228.164 230.5,234C 234.698,238.632 234.364,242.965 229.5,247C 226.854,247.497 224.187,247.664 221.5,247.5C 221.5,246.5 221.5,245.5 221.5,244.5C 224.141,245.263 226.808,245.43 229.5,245C 232.61,240.363 231.276,237.363 225.5,236C 229.104,234.666 230.271,232.166 229,228.5C 225.592,226.777 223.259,227.777 222,231.5C 221.868,228.766 223.035,226.766 225.5,225.5 Z"/></g>
<g><path style="opacity:1" fill="#010100" d="M 34.5,226.5 C 34.6602,228.199 34.4935,229.866 34,231.5C 33.6232,230.058 32.7899,229.058 31.5,228.5C 30.0813,227.549 28.4147,227.216 26.5,227.5C 26.1771,233.69 26.5104,239.69 27.5,245.5C 27.9175,246.222 28.5842,246.722 29.5,247C 26.5,247.667 23.5,247.667 20.5,247C 21.4162,246.626 22.2496,246.126 23,245.5C 23.4995,239.509 23.6662,233.509 23.5,227.5C 21.8008,227.34 20.1341,227.506 18.5,228C 17.7476,228.671 17.4142,229.504 17.5,230.5C 16.5655,229.432 16.2322,228.099 16.5,226.5C 22.5,226.5 28.5,226.5 34.5,226.5 Z"/></g>
<g><path style="opacity:1" fill="#1a190b" d="M 90.5,227.5 C 93.2869,226.523 96.2869,226.19 99.5,226.5C 104.372,226.533 106.539,228.866 106,233.5C 103.78,237.692 100.28,239.359 95.5,238.5C 95.5,241.167 95.5,243.833 95.5,246.5C 96.2942,247.84 94.2942,248.007 89.5,247C 90.7832,243.936 91.4499,240.603 91.5,237C 91.4982,233.648 91.1649,230.482 90.5,227.5 Z"/></g>
<g><path style="opacity:1" fill="#9c9a32" d="M 31.5,228.5 C 30.1667,228.5 28.8333,228.5 27.5,228.5C 27.5,234.167 27.5,239.833 27.5,245.5C 26.5104,239.69 26.1771,233.69 26.5,227.5C 28.4147,227.216 30.0813,227.549 31.5,228.5 Z"/></g>
<g><path style="opacity:1" fill="#edeb4e" d="M 95.5,227.5 C 102.494,227.415 104.161,230.248 100.5,236C 98.8659,236.494 97.1992,236.66 95.5,236.5C 95.5,233.5 95.5,230.5 95.5,227.5 Z"/></g>
<g><path style="opacity:1" fill="#1e1d0d" d="M 52.5,229.5 C 53.404,230.209 53.7373,231.209 53.5,232.5C 57.5,233.167 57.5,233.833 53.5,234.5C 53.335,237.85 53.5017,241.183 54,244.5C 55.3033,245.112 56.4699,245.446 57.5,245.5C 55.9775,247.283 53.9775,247.949 51.5,247.5C 50.9644,242.808 50.2978,238.142 49.5,233.5C 50.5244,232.148 51.5244,230.815 52.5,229.5 Z"/></g>
<g><path style="opacity:1" fill="#181609" d="M 61.5,232.5 C 64.3646,232.055 66.8646,232.722 69,234.5C 68.9481,238.656 69.7815,242.49 71.5,246C 70.8921,246.87 70.0588,247.37 69,247.5C 66.21,246.868 63.3766,246.702 60.5,247C 58.7888,245.867 58.2888,244.367 59,242.5C 61.6927,240.427 64.1927,238.26 66.5,236C 64.1875,232.641 62.8542,233.141 62.5,237.5C 61.5,237.5 60.5,237.5 59.5,237.5C 59.3915,235.486 60.0582,233.82 61.5,232.5 Z"/></g>
<g><path style="opacity:1" fill="#121106" d="M 110.5,232.5 C 115.709,231.396 118.709,233.396 119.5,238.5C 116.167,238.5 112.833,238.5 109.5,238.5C 110.396,245.836 113.563,247.17 119,242.5C 118.703,245.624 116.87,247.291 113.5,247.5C 111.088,247.594 109.255,246.594 108,244.5C 106.888,240.019 107.721,236.019 110.5,232.5 Z"/></g>
<g><path style="opacity:1" fill="#0e0d04" d="M 143.5,247.5 C 143.5,247.167 143.5,246.833 143.5,246.5C 145.39,246.703 146.89,246.037 148,244.5C 148.667,241.833 148.667,239.167 148,236.5C 146,233.833 144,233.833 142,236.5C 141.264,239.592 141.431,242.592 142.5,245.5C 141.244,247.941 141.244,250.274 142.5,252.5C 142.918,253.222 143.584,253.722 144.5,254C 141.833,254.667 139.167,254.667 136.5,254C 137.416,253.626 138.25,253.126 139,252.5C 139.667,246.833 139.667,241.167 139,235.5C 138.5,235 138,234.5 137.5,234C 140.439,232.94 143.439,232.44 146.5,232.5C 148.601,232.632 150.101,233.632 151,235.5C 151.817,238.964 151.483,242.298 150,245.5C 148.211,247.229 146.044,247.896 143.5,247.5 Z"/></g>
<g><path style="opacity:1" fill="#19170a" d="M 166.5,232.5 C 171.206,231.881 173.873,233.881 174.5,238.5C 171.5,238.5 168.5,238.5 165.5,238.5C 166.575,246.248 169.742,247.248 175,241.5C 174.09,246.718 170.923,248.551 165.5,247C 161.268,241.809 161.601,236.975 166.5,232.5 Z"/></g>
<g><path style="opacity:1" fill="#161408" d="M 37.5,232.5 C 45.775,231.706 48.9417,235.373 47,243.5C 44.9473,247.292 41.7806,248.458 37.5,247C 32.2029,242.215 32.2029,237.382 37.5,232.5 Z"/></g>
<g><path style="opacity:1" fill="#f3f150" d="M 37.5,234.5 C 40.5468,233.855 42.7135,234.855 44,237.5C 44.9782,240.669 44.4782,243.503 42.5,246C 39.7019,246.561 37.8686,245.394 37,242.5C 36.3985,239.779 36.5651,237.113 37.5,234.5 Z"/></g>
<g><path style="opacity:1" fill="#dad847" d="M 110.5,234.5 C 112.167,234.5 113.833,234.5 115.5,234.5C 115.5,235.5 115.5,236.5 115.5,237.5C 113.396,237.799 111.396,237.466 109.5,236.5C 109.863,235.817 110.196,235.15 110.5,234.5 Z"/></g>
<g><path style="opacity:1" fill="#161408" d="M 125.5,232.5 C 133.775,231.706 136.942,235.373 135,243.5C 132.947,247.292 129.781,248.458 125.5,247C 120.203,242.215 120.203,237.382 125.5,232.5 Z"/></g>
<g><path style="opacity:1" fill="#f3f150" d="M 125.5,234.5 C 128.547,233.855 130.713,234.855 132,237.5C 132.978,240.669 132.478,243.503 130.5,246C 127.702,246.561 125.869,245.394 125,242.5C 124.398,239.779 124.565,237.113 125.5,234.5 Z"/></g>
<g><path style="opacity:1" fill="#edeb4e" d="M 166.5,234.5 C 167.833,234.5 169.167,234.5 170.5,234.5C 170.5,235.5 170.5,236.5 170.5,237.5C 168.712,237.785 167.045,237.452 165.5,236.5C 165.863,235.817 166.196,235.15 166.5,234.5 Z"/></g>
<g><path style="opacity:1" fill="#e5e34b" d="M 143.5,246.5 C 143.5,245.833 143.167,245.5 142.5,245.5C 141.431,242.592 141.264,239.592 142,236.5C 144,233.833 146,233.833 148,236.5C 148.667,239.167 148.667,241.833 148,244.5C 146.89,246.037 145.39,246.703 143.5,246.5 Z"/></g>
<g><path style="opacity:1" fill="#f2f04f" d="M 64.5,239.5 C 65.6491,239.791 66.3158,240.624 66.5,242C 66.5765,244.756 65.2431,245.923 62.5,245.5C 62.2525,243.142 62.9192,241.142 64.5,239.5 Z"/></g>
<g><path style="opacity:1" fill="#6a6923" d="M 142.5,245.5 C 143.167,245.5 143.5,245.833 143.5,246.5C 143.5,246.833 143.5,247.167 143.5,247.5C 142.549,248.919 142.216,250.585 142.5,252.5C 141.244,250.274 141.244,247.941 142.5,245.5 Z"/></g>
</svg>
